<?xml version="1.0" standalone="no"?>
<!DOCTYPE svg PUBLIC "-//W3C//DTD SVG 20010904//EN"
 "http://www.w3.org/TR/2001/REC-SVG-20010904/DTD/svg10.dtd">
<svg version="1.0" xmlns="http://www.w3.org/2000/svg"
 width="225.000000pt" height="225.000000pt" viewBox="0 0 225.000000 225.000000"
 preserveAspectRatio="xMidYMid meet">

<g transform="translate(0.000000,225.000000) scale(0.100000,-0.100000)"
fill="#000000" stroke="none">
<path d="M1025 2223 c-59 -8 -141 -35 -205 -69 -394 -206 -480 -726 -174
-1050 l35 -38 -126 -439 c-69 -242 -125 -449 -123 -460 6 -40 38 -30 160 49
67 43 123 74 125 69 2 -6 32 -64 67 -130 68 -127 95 -152 116 -103 5 13 51
176 100 363 125 467 121 454 131 430 5 -11 54 -191 109 -400 55 -209 105 -390
110 -402 5 -13 18 -23 29 -23 15 0 35 30 87 130 37 71 70 130 75 130 4 0 61
-34 125 -75 65 -42 125 -74 134 -73 8 2 16 13 18 26 2 12 -54 221 -124 465
l-127 442 38 40 c194 208 238 495 115 750 -125 258 -404 407 -695 368z m248
-78 c140 -36 279 -138 355 -258 71 -113 93 -195 93 -333 0 -151 -52 -280 -159
-395 -117 -127 -264 -191 -437 -191 -168 0 -292 50 -418 170 -202 193 -239
516 -87 749 80 122 215 220 351 257 71 19 230 20 302 1z m-443 -1173 c47 -23
116 -49 153 -57 38 -7 71 -16 74 -18 5 -6 -190 -737 -197 -737 -3 0 -29 47
-59 105 -38 75 -59 105 -72 105 -10 0 -60 -27 -111 -60 -51 -32 -94 -57 -96
-55 -5 5 212 765 218 762 3 -1 43 -21 90 -45z m794 -339 c58 -205 106 -377
106 -383 0 -5 -45 20 -101 56 -55 36 -107 63 -115 60 -7 -3 -37 -53 -66 -111
-29 -58 -55 -105 -58 -105 -9 0 -202 739 -195 750 3 5 19 10 35 10 43 0 148
36 215 74 33 19 63 31 66 27 4 -3 55 -174 113 -378z"/>
<path d="M1005 1967 c-118 -39 -207 -117 -258 -225 -30 -63 -32 -74 -32 -177
0 -103 2 -114 32 -177 41 -88 113 -160 201 -201 63 -30 74 -32 177 -32 103 0
114 2 177 32 88 41 160 113 201 201 30 63 32 74 32 177 0 103 -2 114 -32 177
-41 88 -113 160 -201 201 -58 27 -79 32 -162 34 -59 2 -110 -2 -135 -10z m215
-63 c113 -34 207 -124 240 -231 25 -81 25 -134 1 -212 -30 -97 -96 -172 -191
-218 -47 -23 -68 -27 -145 -28 -79 0 -97 3 -147 28 -74 36 -139 102 -174 175
-25 49 -28 69 -28 147 0 116 27 178 115 259 93 87 210 115 329 80z"/>
</g>
</svg>
