<?xml version="1.0" standalone="no"?>
<!DOCTYPE svg PUBLIC "-//W3C//DTD SVG 20010904//EN"
 "http://www.w3.org/TR/2001/REC-SVG-20010904/DTD/svg10.dtd">
<svg version="1.0" xmlns="http://www.w3.org/2000/svg"
 width="534.000000pt" height="467.000000pt" viewBox="0 0 534.000000 467.000000"
 preserveAspectRatio="xMidYMid meet">

<g transform="translate(0.000000,467.000000) scale(0.100000,-0.100000)"
fill="#000000" stroke="none">
<path d="M1303 4391 c-61 -38 -63 -51 -63 -349 0 -255 -1 -271 -20 -295 -73
-93 -64 -218 23 -294 135 -119 340 -23 340 158 0 48 -5 67 -31 109 l-32 51 0
265 c0 285 -1 294 -54 343 -36 34 -118 40 -163 12z"/>
<path d="M2073 4391 c-61 -38 -63 -51 -63 -349 0 -255 -1 -271 -20 -295 -56
-71 -65 -161 -24 -236 95 -176 352 -130 388 70 7 42 -13 117 -43 155 -20 26
-21 37 -21 291 0 284 -3 306 -54 352 -36 34 -118 40 -163 12z"/>
<path d="M2843 4391 c-61 -38 -63 -52 -63 -348 l0 -268 -30 -44 c-76 -113 -42
-249 77 -307 46 -23 62 -26 110 -21 160 17 242 200 147 328 l-24 33 0 263 c0
284 -3 306 -54 352 -36 34 -118 40 -163 12z"/>
<path d="M801 4059 c-299 -39 -544 -236 -639 -514 l-27 -80 0 -1320 c0 -1254
1 -1323 18 -1380 77 -249 257 -427 522 -516 l70 -24 1365 -3 c1218 -2 1374 -1
1444 13 240 49 437 200 541 416 63 132 66 162 63 660 l-3 446 -142 -156 -142
-156 -1 -245 c0 -266 -6 -307 -57 -409 -64 -127 -230 -245 -380 -270 -49 -9
-419 -11 -1333 -9 l-1265 3 -59 23 c-164 62 -280 174 -338 328 l-23 59 -3
1170 c-2 778 1 1193 8 1240 30 205 199 379 413 426 l57 12 0 149 c0 112 -3
148 -12 147 -7 -1 -42 -5 -77 -10z"/>
<path d="M3390 3922 l0 -149 60 -12 c177 -35 329 -167 398 -345 12 -31 17 -95
21 -252 l6 -211 143 156 143 156 -4 110 c-6 134 -36 230 -106 338 -134 204
-337 324 -598 352 l-63 7 0 -150z"/>
<path d="M4662 3564 c-46 -47 -82 -90 -80 -95 2 -6 107 -105 233 -219 l230
-209 68 72 c88 94 101 118 93 175 -9 66 -53 138 -132 218 -93 92 -190 144
-273 144 l-56 0 -83 -86z"/>
<path d="M4034 2875 c-247 -272 -450 -499 -452 -504 -2 -5 102 -104 230 -221
l233 -211 50 53 c40 42 768 845 847 934 l19 22 -232 211 c-128 116 -236 211
-240 211 -3 0 -208 -223 -455 -495z"/>
<path d="M2205 2604 c-168 -21 -300 -80 -402 -181 -82 -81 -132 -160 -169
-268 -24 -70 -28 -95 -28 -200 0 -105 4 -130 28 -200 37 -107 87 -187 167
-266 120 -119 278 -182 454 -182 183 0 323 59 455 192 134 134 190 269 190
456 0 187 -56 322 -190 455 -94 94 -186 148 -295 174 -67 16 -165 25 -210 20z
m500 -348 c58 -25 83 -105 48 -156 -21 -31 -453 -518 -481 -544 -26 -23 -92
-25 -124 -3 -44 29 -363 319 -375 340 -48 86 45 193 134 155 17 -7 89 -64 158
-126 70 -62 131 -112 135 -110 4 2 93 100 198 219 106 119 202 221 214 227 32
15 53 14 93 -2z"/>
<path d="M745 2535 c-35 -34 -34 -86 1 -114 26 -20 37 -21 429 -21 l403 0 18
28 c10 15 40 51 67 80 l50 52 -472 0 -472 0 -24 -25z"/>
<path d="M2836 2518 c22 -24 52 -60 68 -80 l28 -38 290 0 c166 0 297 4 307 10
10 5 24 23 31 40 16 38 0 82 -36 99 -17 7 -136 11 -376 11 l-351 0 39 -42z"/>
<path d="M3485 2258 c-20 -57 -206 -680 -203 -682 1 -2 155 59 341 134 l338
137 -198 180 c-279 253 -272 247 -278 231z"/>
<path d="M742 1447 c-27 -29 -28 -77 -3 -108 l19 -24 498 -3 498 -3 -74 79
-75 79 -421 2 -421 1 -21 -23z"/>
<path d="M2828 1389 l-76 -79 380 0 380 0 30 30 c25 26 29 36 24 63 -13 67
-14 67 -355 66 l-306 -1 -77 -79z"/>
</g>
</svg>
