<?xml version="1.0" standalone="no"?>
<!DOCTYPE svg PUBLIC "-//W3C//DTD SVG 20010904//EN"
 "http://www.w3.org/TR/2001/REC-SVG-20010904/DTD/svg10.dtd">
<svg version="1.0" xmlns="http://www.w3.org/2000/svg"
 width="168.000000pt" height="300.000000pt" viewBox="0 0 168.000000 300.000000"
 preserveAspectRatio="xMidYMid meet">

<g transform="translate(0.000000,300.000000) scale(0.100000,-0.100000)"
fill="#000000" stroke="none">
<path d="M194 2940 c-45 -19 -54 -46 -54 -175 0 -232 56 -442 158 -592 47 -69
131 -150 190 -184 l42 -24 0 -888 c0 -963 -2 -931 55 -975 55 -43 139 -37 190
14 14 14 26 26 27 27 2 1 5 225 8 497 l5 495 30 0 30 0 5 -490 c5 -446 7 -492
23 -516 25 -37 63 -54 118 -54 56 0 95 24 121 76 17 32 18 94 18 882 0 498 4
847 9 847 14 0 57 -79 80 -147 34 -100 52 -246 56 -440 2 -100 8 -190 14 -201
14 -26 64 -46 96 -38 67 17 81 79 71 299 -17 338 -72 527 -192 656 -91 99
-112 104 -414 109 -276 5 -290 7 -351 65 -140 134 -209 330 -209 599 0 97 -2
109 -22 132 -25 29 -72 40 -104 26z"/>
<path d="M735 2696 c-55 -25 -110 -81 -132 -135 -8 -19 -15 -65 -15 -102 0
-116 66 -208 174 -243 28 -9 65 -16 83 -16 50 0 129 29 169 61 51 43 89 128
89 198 0 192 -195 318 -368 237z"/>
</g>
</svg>
