<?xml version="1.0" standalone="no"?>
<!DOCTYPE svg PUBLIC "-//W3C//DTD SVG 20010904//EN"
 "http://www.w3.org/TR/2001/REC-SVG-20010904/DTD/svg10.dtd">
<svg version="1.0" xmlns="http://www.w3.org/2000/svg"
 width="500.000000pt" height="500.000000pt" viewBox="0 0 500.000000 500.000000"
 preserveAspectRatio="xMidYMid meet">

<g transform="translate(0.000000,500.000000) scale(0.100000,-0.100000)"
fill="#000000" stroke="none">
<path d="M1065 4983 c-90 -47 -105 -86 -105 -286 l0 -157 38 16 c180 79 371
70 563 -27 65 -32 101 -59 159 -118 128 -131 189 -263 198 -428 8 -158 -37
-307 -130 -430 -26 -35 -48 -66 -48 -69 0 -3 15 -3 33 0 17 3 100 15 182 26
83 11 162 23 178 26 21 4 72 63 237 273 115 147 230 287 255 310 58 53 111 77
204 92 138 21 247 -16 335 -113 83 -91 117 -202 97 -313 -18 -102 -61 -169
-279 -436 -20 -25 -100 -128 -176 -228 -211 -276 -243 -300 -536 -396 -80 -26
-148 -53 -152 -59 -14 -20 -9 -143 6 -155 9 -8 194 -10 672 -9 l659 3 3 186 2
186 77 7 c98 8 669 8 794 0 l96 -7 52 -87 c28 -47 51 -92 51 -99 0 -7 -23 -50
-50 -96 -28 -46 -50 -86 -50 -89 0 -8 343 -8 364 0 14 6 16 117 16 1158 0 742
-4 1167 -11 1195 -13 58 -42 97 -89 121 -39 20 -65 20 -1827 20 -1612 -1
-1791 -2 -1818 -17z"/>
<path d="M1095 4396 c-78 -29 -129 -62 -189 -122 -61 -63 -95 -120 -118 -203
-71 -257 72 -509 336 -590 124 -38 255 -19 378 56 158 95 258 301 228 471 -31
184 -174 344 -354 397 -76 23 -208 19 -281 -9z"/>
<path d="M2816 4026 c-56 -21 -42 -4 -376 -448 -95 -125 -179 -229 -188 -232
-9 -3 -55 -10 -102 -16 -47 -6 -141 -20 -210 -32 -111 -19 -178 -22 -610 -27
-471 -6 -487 -7 -541 -29 -79 -32 -132 -81 -171 -160 l-33 -67 -3 -554 c-2
-407 0 -556 9 -561 6 -4 32 -1 57 6 75 23 208 18 299 -11 127 -40 250 -131
295 -220 11 -22 26 -47 33 -55 19 -21 55 -132 64 -199 8 -52 9 -53 10 -15 2
57 27 138 69 218 40 77 151 195 211 225 62 31 164 62 226 69 l60 7 -1 230 c-1
127 -2 264 -3 305 -2 41 0 139 4 217 l7 143 66 19 c37 11 135 38 218 60 160
43 228 68 275 102 16 11 133 156 261 322 289 374 302 393 318 441 17 52 7 147
-19 189 -41 66 -148 101 -225 73z"/>
<path d="M2118 2304 c-5 -4 -8 -87 -8 -184 0 -148 3 -180 15 -190 13 -11 79
-12 318 -6 166 4 325 11 352 17 28 5 112 15 188 22 96 9 142 18 153 28 28 29
-6 39 -145 46 -121 6 -132 8 -153 30 -18 20 -23 38 -26 98 -5 86 5 79 -167
116 -77 16 -149 22 -310 26 -115 3 -213 2 -217 -3z"/>
<path d="M677 1720 c-111 -28 -204 -106 -258 -215 -30 -61 -33 -76 -33 -154 0
-110 26 -180 95 -256 48 -52 169 -125 207 -125 31 0 -1 -15 -57 -26 -208 -43
-375 -216 -425 -441 -12 -54 -16 -127 -16 -287 l0 -216 2311 0 2311 0 -4 247
c-4 235 -6 252 -30 320 -14 40 -37 92 -51 116 -35 58 -110 141 -161 177 -49
33 -153 77 -205 86 -66 10 -67 15 -11 38 155 62 244 171 264 321 20 153 -80
323 -231 393 -51 23 -70 26 -160 25 -83 0 -110 -5 -147 -22 -141 -69 -230
-212 -228 -367 3 -153 108 -295 255 -345 28 -10 53 -22 55 -27 1 -5 -18 -12
-43 -15 -129 -18 -279 -110 -355 -218 -39 -56 -90 -181 -90 -222 0 -36 -23
-11 -40 43 -64 206 -224 356 -418 393 -34 6 -62 15 -62 19 0 3 17 12 38 18 50
17 141 72 173 107 65 69 107 200 95 300 -11 96 -43 162 -111 228 -81 79 -156
109 -270 108 -165 -3 -291 -86 -352 -232 -27 -68 -31 -190 -8 -268 32 -107
125 -199 242 -239 60 -21 68 -34 21 -34 -45 0 -158 -42 -225 -82 -103 -61
-203 -201 -234 -325 -7 -29 -16 -53 -20 -53 -4 0 -13 24 -19 53 -30 128 -148
285 -256 340 -69 35 -167 67 -204 67 -44 0 -37 13 18 32 174 63 263 185 263
363 1 231 -181 399 -414 382 -96 -6 -203 -60 -257 -128 -71 -89 -102 -213 -81
-323 25 -133 106 -232 231 -283 74 -30 87 -43 43 -43 -48 0 -189 -55 -242 -94
-99 -73 -171 -177 -211 -306 -17 -54 -40 -79 -40 -43 0 43 -44 153 -85 213
-45 67 -122 138 -185 170 -46 23 -166 60 -196 60 -13 0 -24 5 -24 10 0 6 6 10
13 10 6 0 40 13 75 30 81 38 155 113 193 195 84 179 -1 408 -186 499 -60 29
-192 42 -258 26z"/>
</g>
</svg>
