<?xml version="1.0" standalone="no"?>
<!DOCTYPE svg PUBLIC "-//W3C//DTD SVG 20010904//EN"
 "http://www.w3.org/TR/2001/REC-SVG-20010904/DTD/svg10.dtd">
<svg version="1.0" xmlns="http://www.w3.org/2000/svg"
 width="225.000000pt" height="225.000000pt" viewBox="0 0 225.000000 225.000000"
 preserveAspectRatio="xMidYMid meet">

<g transform="translate(0.000000,225.000000) scale(0.100000,-0.100000)"
fill="#000000" stroke="none">
<path d="M723 2226 c-28 -24 -28 -25 -31 -162 -4 -157 1 -197 29 -225 25 -25
79 -25 113 2 l26 20 0 174 0 174 -26 20 c-35 28 -77 26 -111 -3z"/>
<path d="M1603 2240 c-38 -15 -43 -42 -43 -210 0 -158 1 -161 25 -185 16 -17
35 -25 60 -25 25 0 44 8 60 25 24 23 25 28 25 179 0 92 -4 165 -11 179 -18 40
-68 56 -116 37z"/>
<path d="M367 2066 c-71 -19 -127 -63 -162 -126 l-30 -55 -3 -292 -4 -293 86
0 85 0 3 128 3 127 867 3 868 2 0 -616 c0 -632 -1 -642 -39 -671 -12 -10 -205
-12 -828 -13 l-812 0 -28 24 c-26 23 -28 28 -31 130 l-4 106 -86 0 -85 0 5
-118 c6 -135 23 -187 83 -245 72 -70 36 -67 954 -67 538 0 839 4 863 10 56 16
119 69 147 125 l26 49 3 785 c3 871 4 850 -63 928 -57 66 -107 85 -246 91
l-119 5 0 -105 c0 -88 -3 -111 -22 -148 -52 -102 -181 -131 -262 -59 -54 47
-66 83 -66 203 l0 106 -260 0 -260 0 0 -110 c0 -120 -7 -145 -57 -192 -54 -52
-126 -62 -193 -28 -73 37 -99 102 -100 248 l0 82 -92 -1 c-51 0 -115 -6 -141
-13z"/>
<path d="M541 1354 c-18 -23 -21 -41 -21 -130 l0 -104 -235 0 -236 0 -24 -25
c-24 -24 -25 -28 -25 -184 0 -155 1 -161 24 -188 l24 -28 235 -3 235 -3 4
-110 c3 -97 6 -112 23 -125 11 -8 30 -14 42 -12 23 3 526 455 521 469 -2 4
-116 111 -255 238 -152 140 -260 231 -272 231 -11 0 -29 -12 -40 -26z"/>
</g>
</svg>
