<?xml version="1.0" standalone="no"?>
<!DOCTYPE svg PUBLIC "-//W3C//DTD SVG 20010904//EN"
 "http://www.w3.org/TR/2001/REC-SVG-20010904/DTD/svg10.dtd">
<svg version="1.0" xmlns="http://www.w3.org/2000/svg"
 width="200.000000pt" height="252.000000pt" viewBox="0 0 200.000000 252.000000"
 preserveAspectRatio="xMidYMid meet">

<g transform="translate(0.000000,252.000000) scale(0.100000,-0.100000)"
fill="#000000" stroke="none">
<path d="M699 2491 c-24 -25 -29 -37 -29 -80 l0 -51 -95 0 c-52 0 -105 -5
-118 -11 -30 -14 -47 -48 -47 -94 l0 -35 -166 0 -166 0 -34 -34 -34 -34 0
-1039 c0 -1153 -5 -1069 66 -1099 50 -21 1798 -21 1848 0 71 30 66 -54 66
1099 l0 1039 -34 34 -34 34 -166 0 -166 0 0 35 c0 46 -17 80 -47 94 -13 6 -66
11 -118 11 l-95 0 0 51 c0 43 -5 55 -29 80 l-29 29 -272 0 -272 0 -29 -29z
m529 -143 c2 -38 8 -71 16 -77 7 -6 64 -12 127 -13 l114 -3 3 -107 3 -108
-491 0 -491 0 3 108 3 107 115 5 c63 3 121 9 128 13 7 5 12 32 12 71 0 34 3
66 7 70 4 3 106 5 227 4 l221 -3 3 -67z m-818 -292 c0 -54 4 -70 24 -93 l24
-28 542 0 542 0 24 28 c20 23 24 39 24 93 l0 64 150 0 150 0 -2 -1007 -3
-1008 -885 0 -885 0 -3 1008 -2 1007 150 0 150 0 0 -64z"/>
<path d="M270 1535 l0 -175 125 0 125 0 0 40 0 39 -67 3 c-62 3 -68 5 -71 26
-3 21 0 22 57 22 l61 0 0 40 0 40 -60 0 c-57 0 -60 1 -60 25 0 24 2 25 65 25
61 0 65 1 65 23 0 12 3 32 6 45 6 22 6 22 -120 22 l-126 0 0 -175z"/>
<path d="M570 1705 c0 -2 16 -41 36 -86 l36 -83 -32 -75 c-17 -42 -34 -82 -37
-88 -4 -10 11 -13 55 -13 l59 0 21 53 20 52 22 -52 23 -53 63 0 63 0 -39 90
-39 89 39 86 39 85 -60 0 -60 0 -19 -45 c-11 -25 -21 -45 -24 -45 -3 0 -14 20
-25 45 l-20 45 -60 0 c-34 0 -61 -2 -61 -5z"/>
<path d="M1007 1703 c-5 -9 -87 -326 -87 -337 0 -4 26 -6 58 -4 51 3 57 5 60
26 3 21 8 23 55 20 45 -3 52 -6 55 -25 3 -21 9 -23 63 -23 53 0 60 2 55 18 -4
15 -50 189 -77 295 l-10 37 -84 0 c-46 0 -86 -3 -88 -7z m106 -170 c6 -30 4
-33 -18 -33 -28 0 -30 8 -14 65 12 43 19 37 32 -32z"/>
<path d="M1316 1638 c-3 -40 -9 -119 -12 -175 l-7 -103 56 0 c65 0 67 3 68 98
l1 67 13 -40 c8 -22 19 -59 25 -82 11 -42 12 -43 54 -43 l43 0 18 80 c21 93
35 89 35 -12 l0 -68 58 0 57 0 -9 175 -9 175 -73 0 -73 0 -10 -37 c-6 -20 -16
-61 -22 -90 -14 -63 -20 -57 -45 50 l-18 77 -72 0 -72 0 -6 -72z"/>
<path d="M544 1068 c-31 -40 -59 -75 -60 -77 -2 -2 -15 11 -29 28 -29 34 -64
40 -89 15 -28 -27 -18 -60 34 -123 75 -90 85 -87 193 45 61 75 87 115 87 133
0 34 -17 51 -51 51 -21 0 -39 -15 -85 -72z"/>
<path d="M852 1048 c-15 -15 -15 -61 0 -76 17 -17 759 -17 776 0 17 17 15 54
-4 72 -13 14 -63 16 -388 16 -276 0 -375 -3 -384 -12z"/>
<path d="M393 643 c-3 -10 -8 -21 -10 -25 -2 -4 13 -25 33 -48 l36 -40 -36
-40 c-42 -46 -43 -53 -16 -80 27 -27 34 -26 80 16 l40 36 41 -37 c37 -34 42
-35 62 -22 34 22 32 49 -7 86 l-35 34 34 40 c37 43 43 65 23 85 -20 20 -51 13
-85 -20 l-33 -32 -33 32 c-37 36 -84 43 -94 15z"/>
<path d="M852 568 c-15 -15 -15 -61 0 -76 17 -17 759 -17 776 0 7 7 12 24 12
38 0 14 -5 31 -12 38 -17 17 -759 17 -776 0z"/>
</g>
</svg>
