<?xml version="1.0" standalone="no"?>
<!DOCTYPE svg PUBLIC "-//W3C//DTD SVG 20010904//EN"
 "http://www.w3.org/TR/2001/REC-SVG-20010904/DTD/svg10.dtd">
<svg version="1.0" xmlns="http://www.w3.org/2000/svg"
 width="216.000000pt" height="233.000000pt" viewBox="0 0 216.000000 233.000000"
 preserveAspectRatio="xMidYMid meet">

<g transform="translate(0.000000,233.000000) scale(0.100000,-0.100000)"
fill="#000000" stroke="none">
<path d="M24 2316 c-19 -14 -19 -37 -21 -1008 -2 -785 0 -998 10 -1018 18 -35
56 -37 106 -5 51 31 52 30 151 -69 94 -95 108 -97 188 -24 31 29 72 66 89 82
l32 29 90 -86 c57 -55 98 -87 112 -87 14 0 54 31 109 86 l88 85 93 -80 c81
-71 109 -91 109 -77 0 2 -11 23 -24 47 -13 24 -31 67 -40 94 -12 38 -29 60
-67 93 -73 60 -86 57 -185 -39 l-83 -82 -89 82 c-60 54 -97 81 -113 81 -16 0
-55 -29 -113 -81 l-89 -80 -31 28 c-17 16 -59 54 -93 86 -65 60 -85 67 -121
41 l-22 -15 0 915 0 916 870 0 870 0 2 -591 3 -591 50 -19 c28 -10 51 -19 53
-19 1 0 2 288 2 640 0 627 0 640 -20 660 -20 20 -33 20 -958 20 -794 0 -941
-2 -958 -14z"/>
<path d="M390 1755 l0 -195 50 0 50 0 0 75 0 75 60 0 60 0 0 40 0 40 -60 0
-60 0 0 40 0 40 65 0 65 0 0 40 0 40 -115 0 -115 0 0 -195z"/>
<path d="M680 1755 l0 -195 115 0 115 0 0 45 0 45 -65 0 -65 0 0 35 0 35 60 0
60 0 0 40 0 39 -57 3 c-57 3 -58 3 -58 33 0 30 0 30 63 33 l62 3 0 39 0 40
-115 0 -115 0 0 -195z"/>
<path d="M980 1755 l0 -195 115 0 115 0 0 45 0 45 -65 0 -65 0 0 35 0 35 60 0
60 0 0 40 0 39 -57 3 c-57 3 -58 3 -58 33 0 30 0 30 63 33 l62 3 0 39 0 40
-115 0 -115 0 0 -195z"/>
<path d="M1312 1930 c-39 -24 -56 -62 -48 -109 7 -43 29 -66 103 -105 60 -32
71 -51 41 -70 -17 -10 -87 0 -130 19 -16 6 -18 1 -18 -38 0 -42 2 -46 31 -56
44 -15 123 -14 162 3 45 19 68 48 73 93 7 54 -21 93 -88 125 -62 30 -80 48
-68 67 8 14 74 12 111 -3 12 -5 20 2 32 31 15 38 15 38 -11 50 -45 20 -152 16
-190 -7z"/>
<path d="M390 1263 l0 -53 570 0 570 0 0 50 0 50 -570 2 -570 3 0 -52z"/>
<path d="M390 910 l0 -50 424 0 c393 0 426 1 438 18 7 9 30 32 51 50 l38 32
-476 0 -475 0 0 -50z"/>
<path d="M1622 928 c-87 -10 -180 -56 -251 -123 -279 -266 -139 -728 241 -796
191 -34 394 65 485 236 42 81 54 132 54 228 0 123 -36 215 -115 304 -107 119
-249 171 -414 151z m273 -308 l49 -50 -149 -150 c-82 -82 -156 -150 -165 -150
-9 0 -56 41 -105 91 l-89 90 51 51 51 51 49 -41 48 -42 100 100 c55 55 102
100 105 100 3 0 28 -22 55 -50z"/>
</g>
</svg>
