<?xml version="1.0" standalone="no"?>
<!DOCTYPE svg PUBLIC "-//W3C//DTD SVG 20010904//EN"
 "http://www.w3.org/TR/2001/REC-SVG-20010904/DTD/svg10.dtd">
<svg version="1.0" xmlns="http://www.w3.org/2000/svg"
 width="641.000000pt" height="389.000000pt" viewBox="0 0 641.000000 389.000000"
 preserveAspectRatio="xMidYMid meet">

<g transform="translate(0.000000,389.000000) scale(0.100000,-0.100000)"
fill="#000000" stroke="none">
<path d="M2276 3649 c-65 -16 -155 -70 -198 -118 -210 -236 -87 -597 226 -661
147 -30 315 42 400 173 77 116 87 269 28 390 -42 84 -129 167 -209 197 -65 26
-186 35 -247 19z"/>
<path d="M1968 2832 c-83 -22 -168 -79 -218 -147 -50 -67 -61 -89 -108 -230
-69 -207 -77 -262 -77 -510 0 -233 9 -289 56 -357 11 -14 19 -29 19 -32 0 -3
-58 -6 -130 -6 -117 0 -132 -2 -150 -20 -41 -41 -10 -110 50 -110 17 0 30 -3
30 -7 1 -5 -41 -266 -92 -580 -59 -366 -89 -576 -83 -582 6 -5 32 -11 59 -13
56 -3 53 -7 71 115 l6 47 457 -2 456 -3 14 -80 c7 -43 14 -81 16 -82 5 -5 93
9 105 17 9 5 -5 106 -48 371 -33 200 -74 452 -90 559 -17 107 -33 205 -36 218
-4 18 -1 22 19 22 14 0 27 -3 29 -7 3 -5 23 -123 46 -263 23 -140 48 -278 56
-307 47 -161 270 -182 348 -32 14 27 17 50 14 109 -5 96 -113 752 -131 794
-17 42 -77 92 -123 105 -21 6 -111 11 -201 11 l-163 0 6 58 c10 97 35 272 41
286 3 8 -51 63 -145 145 -83 72 -158 145 -166 161 -68 131 83 280 212 208 23
-13 106 -79 183 -146 78 -68 143 -122 145 -120 3 4 -176 310 -205 350 -48 66
-159 90 -272 60z m182 -1419 c0 -5 11 -73 25 -153 29 -176 115 -715 115 -724
0 -3 -193 -6 -430 -6 l-430 0 0 23 c0 13 24 174 54 358 30 184 60 368 66 409
7 41 14 81 16 88 3 9 70 12 294 12 159 0 290 -3 290 -7z"/>
<path d="M2677 2795 l-28 -25 117 -141 117 -141 41 6 c22 4 42 9 44 11 5 4
-246 308 -257 312 -3 1 -19 -9 -34 -22z"/>
<path d="M4466 2788 c-7 -32 -26 -211 -26 -242 0 -19 5 -26 20 -26 11 0 20 1
20 3 36 282 36 287 10 287 -12 0 -21 -8 -24 -22z"/>
<path d="M1978 2639 c-15 -11 -32 -35 -38 -54 -22 -67 -7 -87 216 -281 217
-188 236 -203 270 -204 27 0 612 138 635 151 47 25 67 102 39 154 -17 31 -58
55 -95 55 -14 0 -141 -27 -282 -60 -210 -49 -259 -58 -272 -47 -9 6 -83 71
-166 142 -82 72 -161 139 -175 148 -33 23 -98 21 -132 -4z"/>
<path d="M4246 2641 c-4 -5 -4 -15 -2 -23 3 -7 10 -32 16 -55 8 -32 16 -43 30
-43 23 0 24 10 8 79 -8 38 -16 51 -29 51 -10 0 -20 -4 -23 -9z"/>
<path d="M4260 2280 l0 -190 125 0 125 0 0 190 0 190 -125 0 -125 0 0 -190z"/>
<path d="M3130 2255 c-7 -14 -11 -26 -9 -28 23 -19 69 -47 69 -44 0 7 -41 97
-44 97 -1 0 -9 -11 -16 -25z"/>
<path d="M2827 2145 c-77 -19 -141 -35 -143 -38 -3 -2 44 -13 103 -24 96 -18
113 -19 148 -7 32 11 148 14 578 14 471 0 537 2 537 15 0 13 -65 15 -526 15
l-526 0 6 30 c7 38 4 38 -177 -5z"/>
<path d="M2570 1985 l0 -45 70 0 70 0 0 -85 0 -85 50 0 50 0 0 -760 0 -760 65
0 65 0 0 110 0 110 925 0 925 0 0 -110 0 -110 60 0 60 0 0 759 0 760 53 3 52
3 3 83 3 82 69 0 70 0 0 45 0 45 -1295 0 -1295 0 0 -45z m2220 -805 l0 -590
-925 0 -925 0 0 590 0 590 925 0 925 0 0 -590z"/>
</g>
</svg>
