<?xml version="1.0" standalone="no"?>
<!DOCTYPE svg PUBLIC "-//W3C//DTD SVG 20010904//EN"
 "http://www.w3.org/TR/2001/REC-SVG-20010904/DTD/svg10.dtd">
<svg version="1.0" xmlns="http://www.w3.org/2000/svg"
 width="225.000000pt" height="225.000000pt" viewBox="0 0 225.000000 225.000000"
 preserveAspectRatio="xMidYMid meet">

<g transform="translate(0.000000,225.000000) scale(0.100000,-0.100000)"
fill="#000000" stroke="none">
<path d="M484 2180 c-11 -4 -33 -22 -47 -40 -25 -29 -27 -39 -27 -121 l0 -89
-146 0 -146 0 -39 -39 -39 -39 0 -854 0 -855 22 -28 c45 -57 4 -55 1063 -55
1059 0 1018 -2 1063 55 l22 28 0 855 0 854 -39 39 -39 39 -146 0 -146 0 0 85
c0 56 -5 96 -15 114 -14 28 -68 61 -100 61 -32 0 -86 -33 -100 -61 -10 -18
-15 -58 -15 -114 l0 -85 -485 0 -485 0 0 85 c0 101 -14 135 -64 159 -37 18
-60 19 -92 6z m80 -82 c13 -18 16 -52 16 -163 0 -154 -9 -185 -55 -185 -46 0
-55 31 -55 185 0 154 9 185 55 185 13 0 31 -10 39 -22z m1200 0 c13 -18 16
-52 16 -163 0 -154 -9 -185 -55 -185 -46 0 -55 31 -55 185 0 154 9 185 55 185
13 0 31 -10 39 -22z m-1352 -289 c4 -54 9 -66 36 -90 25 -23 42 -29 77 -29 35
0 52 6 77 29 27 24 32 36 36 90 l4 61 483 0 483 0 4 -61 c4 -54 9 -66 36 -90
25 -22 42 -29 75 -29 73 0 117 50 117 135 l0 45 135 0 c177 0 175 2 175 -150
l0 -110 -1025 0 -1025 0 0 108 c0 149 1 150 186 151 l122 1 4 -61z m1738 -950
c0 -676 0 -689 -20 -709 -20 -20 -33 -20 -1005 -20 -972 0 -985 0 -1005 20
-20 20 -20 33 -20 703 0 376 2 686 5 689 3 3 465 5 1025 5 l1020 0 0 -688z"/>
<path d="M205 1428 c-3 -7 -4 -278 -3 -603 l3 -590 920 0 920 0 0 600 0 600
-918 3 c-729 2 -919 0 -922 -10z m1775 -593 l0 -545 -855 0 -855 0 0 545 0
545 855 0 855 0 0 -545z"/>
<path d="M1103 1208 c-6 -7 -34 -59 -62 -115 -38 -77 -57 -104 -73 -108 -13
-2 -70 -11 -127 -19 -97 -14 -120 -24 -121 -51 0 -5 41 -50 92 -100 l92 -90
-22 -125 c-29 -174 -28 -175 126 -94 l118 61 116 -61 c104 -55 118 -59 132
-46 14 14 13 28 -6 140 l-21 125 91 89 c51 49 92 95 92 102 0 24 -31 35 -147
51 l-119 16 -60 116 c-57 113 -79 136 -101 109z m71 -192 c28 -63 45 -88 60
-91 12 -2 59 -9 104 -16 l84 -12 -73 -73 -73 -73 17 -98 c10 -54 17 -101 17
-104 0 -3 -37 13 -82 37 -46 24 -91 44 -101 44 -9 0 -55 -21 -102 -46 -47 -25
-85 -44 -85 -41 0 3 7 41 15 84 23 120 23 119 -56 199 l-71 72 88 12 c49 6 96
14 105 16 9 3 35 45 58 95 23 49 45 88 49 85 4 -2 25 -43 46 -90z"/>
</g>
</svg>
