<?xml version="1.0" standalone="no"?>
<!DOCTYPE svg PUBLIC "-//W3C//DTD SVG 20010904//EN"
 "http://www.w3.org/TR/2001/REC-SVG-20010904/DTD/svg10.dtd">
<svg version="1.0" xmlns="http://www.w3.org/2000/svg"
 width="229.000000pt" height="220.000000pt" viewBox="0 0 229.000000 220.000000"
 preserveAspectRatio="xMidYMid meet">

<g transform="translate(0.000000,220.000000) scale(0.100000,-0.100000)"
fill="#000000" stroke="none">
<path d="M358 2190 c-91 -11 -108 -18 -119 -47 -5 -14 -9 -296 -9 -687 0 -606
1 -665 17 -677 12 -10 49 -14 135 -14 119 0 119 0 124 25 3 14 9 40 14 58 l9
34 -86 -7 c-46 -4 -92 -8 -101 -9 -16 -1 -17 46 -17 609 l0 610 60 9 c67 10
222 -4 320 -29 137 -35 285 -130 357 -229 27 -38 28 -42 28 -168 l0 -128 39 0
c22 0 46 -3 55 -6 14 -5 16 10 16 128 l0 133 41 50 c126 153 335 236 594 239
l130 1 3 -607 c1 -376 -1 -608 -7 -608 -5 0 -21 4 -35 10 -31 11 -31 14 -6
-35 11 -22 20 -47 20 -57 0 -12 11 -19 34 -23 46 -9 75 2 87 32 5 14 9 293 9
678 l0 654 -23 27 c-23 26 -26 27 -164 32 -294 10 -550 -72 -696 -225 l-37
-39 -63 61 c-164 161 -440 238 -729 205z"/>
<path d="M20 1900 c-20 -20 -20 -33 -20 -730 0 -854 -19 -769 162 -725 132 32
286 55 366 55 35 0 62 3 60 8 -1 4 -14 27 -28 50 l-25 44 -81 -6 c-76 -6 -280
-38 -331 -52 l-23 -6 0 691 0 691 -30 0 c-17 0 -39 -9 -50 -20z"/>
<path d="M2190 1229 l0 -691 -25 6 c-39 10 -179 36 -192 36 -9 0 -13 -17 -13
-49 l0 -50 58 -11 c31 -6 91 -20 134 -31 94 -23 94 -23 118 1 20 20 20 33 20
730 0 697 0 710 -20 730 -11 11 -33 20 -50 20 l-30 0 0 -691z"/>
<path d="M1090 1390 c-43 -11 -95 -66 -109 -117 -6 -22 -11 -141 -11 -286 l0
-247 -72 59 c-112 91 -171 105 -230 52 -31 -27 -33 -33 -32 -93 1 -82 15 -110
191 -374 102 -152 143 -221 148 -252 8 -50 41 -102 75 -119 32 -16 467 -18
524 -2 59 16 123 88 183 205 67 132 76 180 71 378 -3 127 -7 168 -21 193 -27
51 -63 73 -118 73 -46 0 -48 1 -59 36 -16 46 -61 74 -121 74 -42 0 -48 3 -59
30 -16 38 -41 53 -105 60 l-50 5 -5 110 c-3 61 -11 120 -17 131 -16 27 -80 84
-96 84 -7 0 -21 2 -32 4 -11 3 -36 1 -55 -4z m97 -92 c36 -41 38 -51 43 -258
l5 -205 25 0 c24 0 25 2 28 78 l3 77 39 0 c59 0 70 -23 70 -146 0 -105 7 -122
44 -108 13 5 26 67 26 130 0 31 3 34 30 34 32 0 69 -29 72 -57 1 -10 3 -56 3
-102 0 -67 3 -86 17 -94 31 -20 48 8 48 79 l0 64 34 0 c72 0 85 -37 87 -233 0
-131 -3 -162 -20 -212 -28 -79 -96 -197 -138 -237 l-34 -33 -241 -3 c-275 -3
-268 -5 -288 80 -9 36 -56 116 -166 285 -159 243 -184 294 -168 341 8 22 16
27 42 27 26 0 53 -16 127 -75 91 -73 94 -76 95 -116 0 -50 19 -71 49 -54 21
10 21 17 21 346 0 354 3 377 47 403 31 18 78 13 100 -11z"/>
</g>
</svg>
