<?xml version="1.0" standalone="no"?>
<!DOCTYPE svg PUBLIC "-//W3C//DTD SVG 20010904//EN"
 "http://www.w3.org/TR/2001/REC-SVG-20010904/DTD/svg10.dtd">
<svg version="1.0" xmlns="http://www.w3.org/2000/svg"
 width="500.000000pt" height="500.000000pt" viewBox="0 0 500.000000 500.000000"
 preserveAspectRatio="xMidYMid meet">

<g transform="translate(0.000000,500.000000) scale(0.100000,-0.100000)"
fill="#000000" stroke="none">
<path d="M1625 3879 c-224 -55 -420 -208 -524 -409 -69 -133 -86 -205 -86
-365 0 -157 19 -243 76 -358 104 -205 289 -358 501 -413 32 -8 63 -12 67 -9 5
3 5 22 0 42 -21 92 -3 191 50 276 l31 47 -178 0 c-125 0 -182 4 -190 12 -17
17 -17 999 0 1016 19 19 2071 17 2087 -1 7 -10 12 -139 13 -413 l3 -399 88 -3
c99 -3 106 -9 87 -68 -12 -34 -11 -37 23 -72 19 -21 40 -47 46 -59 19 -37 13
-107 -12 -144 -26 -40 -98 -79 -144 -79 -28 0 -35 -5 -47 -35 l-15 -35 -219 0
c-174 0 -222 3 -231 14 -9 10 6 65 66 242 l78 229 90 5 c84 5 87 6 50 15 -22
6 -130 10 -239 10 l-199 0 -27 -74 c-26 -72 -27 -74 -9 -92 17 -17 19 -36 19
-160 0 -139 -8 -179 -35 -179 -24 0 -27 18 -26 146 l2 124 -272 0 -271 0 18
-27 c70 -107 89 -232 49 -335 -5 -13 0 -19 18 -23 14 -4 229 -5 478 -3 517 5
531 7 704 92 201 100 346 272 417 496 20 65 23 95 23 220 -1 137 -2 150 -33
240 -42 121 -97 214 -179 301 -110 116 -241 192 -397 229 -77 19 -122 20 -876
19 -755 0 -799 -1 -875 -20z"/>
<path d="M1427 3663 c-4 -3 -7 -210 -7 -460 l0 -453 194 0 c184 0 196 1 247
25 76 34 150 41 229 21 36 -9 75 -23 87 -31 18 -12 69 -15 270 -15 l248 1 -67
28 c-87 37 -176 101 -265 190 -84 84 -101 117 -86 172 l10 38 -106 41 c-58 23
-148 58 -199 77 -97 38 -115 54 -89 80 13 14 37 7 227 -68 181 -70 220 -82
265 -80 48 2 57 -2 106 -41 30 -24 81 -54 114 -69 48 -20 60 -29 59 -47 0 -16
11 -26 46 -41 81 -35 129 -41 355 -41 163 0 236 -4 278 -15 32 -8 60 -15 63
-15 2 0 3 159 2 353 l-3 352 -986 3 c-542 1 -989 -1 -992 -5z m1793 -205 c37
-22 64 -49 85 -82 26 -43 30 -59 30 -120 -1 -102 -43 -173 -130 -219 -56 -30
-155 -29 -211 0 -47 25 -101 82 -120 129 -34 82 -2 210 67 268 50 43 86 55
159 56 57 0 73 -4 120 -32z"/>
<path d="M3015 3411 c-90 -55 -118 -145 -76 -238 42 -90 158 -124 249 -73 50
28 78 69 88 127 12 75 -35 161 -103 189 -47 20 -122 18 -158 -5z"/>
<path d="M2350 3150 c-11 -11 -20 -30 -20 -42 0 -33 170 -194 247 -236 82 -43
194 -85 203 -75 13 14 50 124 45 132 -2 5 -24 11 -47 15 -68 11 -156 60 -262
146 -105 85 -131 95 -166 60z"/>
<path d="M3235 2823 c-14 -34 -115 -337 -115 -345 0 -12 338 -10 345 2 3 6 -1
13 -10 16 -41 16 -60 119 -29 162 19 27 65 52 96 52 21 0 27 9 45 65 l21 65
-173 0 c-155 0 -174 -2 -180 -17z"/>
<path d="M1945 2741 c-91 -23 -163 -81 -202 -159 -23 -47 -28 -70 -28 -132 0
-85 21 -142 74 -203 80 -90 239 -121 346 -65 108 56 168 153 167 268 -1 157
-115 280 -273 294 -30 3 -67 2 -84 -3z"/>
<path d="M3605 2700 c-8 -35 -44 -64 -69 -54 -27 10 -66 -22 -66 -55 0 -42 21
-54 87 -49 48 4 61 10 85 37 34 38 37 87 7 125 -27 34 -36 33 -44 -4z"/>
<path d="M2919 2125 c-31 -17 -59 -71 -59 -112 0 -34 30 -82 62 -99 94 -53
211 41 178 141 -17 51 -62 85 -113 85 -23 -1 -54 -7 -68 -15z"/>
<path d="M1757 2070 c-21 -6 -50 -16 -65 -24 -38 -20 -96 -82 -88 -95 5 -8
134 -11 422 -11 343 0 414 2 414 14 0 24 -37 61 -92 91 l-53 30 -250 2 c-137
1 -267 -2 -288 -7z"/>
<path d="M1365 1868 c-55 -30 -55 -30 -55 -350 l0 -298 680 0 680 0 0 296 c0
183 -4 303 -10 315 -27 49 -26 49 -672 49 -419 -1 -609 -4 -623 -12z m690 -63
c19 -18 25 -35 25 -65 0 -30 -6 -47 -25 -65 -18 -19 -35 -25 -65 -25 -30 0
-47 6 -65 25 -19 18 -25 35 -25 65 0 30 6 47 25 65 18 19 35 25 65 25 30 0 47
-6 65 -25z"/>
<path d="M1964 1756 c-10 -26 4 -48 28 -44 17 2 23 10 23 28 0 18 -6 26 -23
28 -13 2 -25 -3 -28 -12z"/>
<path d="M1325 1149 c-4 -5 1 -19 11 -30 17 -18 37 -19 654 -19 670 0 683 1
667 44 -6 15 -63 16 -666 16 -455 0 -662 -3 -666 -11z"/>
<path d="M4624 119 c-3 -6 -2 -15 3 -20 5 -5 9 -1 9 11 0 23 -2 24 -12 9z"/>
<path d="M4695 120 c-3 -5 -1 -10 4 -10 6 0 11 5 11 10 0 6 -2 10 -4 10 -3 0
-8 -4 -11 -10z"/>
<path d="M4417 98 c-4 -13 0 -18 14 -18 12 0 19 7 19 18 0 10 -6 19 -14 19 -8
0 -17 -9 -19 -19z"/>
<path d="M4760 115 c-8 -45 -8 -47 2 -37 5 5 8 18 5 28 -3 11 -6 15 -7 9z"/>
<path d="M4580 106 c0 -2 7 -7 16 -10 8 -3 12 -2 9 4 -6 10 -25 14 -25 6z"/>
<path d="M4651 84 c0 -11 3 -14 6 -6 3 7 2 16 -1 19 -3 4 -6 -2 -5 -13z"/>
<path d="M4680 89 c0 -5 9 -9 20 -9 11 0 20 2 20 4 0 2 -9 6 -20 9 -11 3 -20
1 -20 -4z"/>
</g>
</svg>
