<?xml version="1.0" standalone="no"?>
<!DOCTYPE svg PUBLIC "-//W3C//DTD SVG 20010904//EN"
 "http://www.w3.org/TR/2001/REC-SVG-20010904/DTD/svg10.dtd">
<svg version="1.0" xmlns="http://www.w3.org/2000/svg"
 width="626.000000pt" height="626.000000pt" viewBox="0 0 626.000000 626.000000"
 preserveAspectRatio="xMidYMid meet">

<g transform="translate(0.000000,626.000000) scale(0.100000,-0.100000)"
fill="#000000" stroke="none">
<path d="M0 3480 l0 -2430 1238 0 c681 0 1241 -2 1244 -5 3 -3 2 -25 -3 -48
-4 -23 -24 -130 -44 -237 -20 -107 -45 -238 -56 -290 -10 -52 -19 -100 -19
-107 0 -11 146 -13 770 -13 624 0 770 2 770 13 0 7 -9 55 -19 107 -11 52 -36
183 -56 290 -20 107 -40 213 -45 234 -5 22 -7 43 -4 48 3 4 563 8 1245 8
l1239 0 0 2430 0 2430 -3130 0 -3130 0 0 -2430z m5820 0 l0 -2000 -1524 0
-1523 0 -7 37 c-3 21 -13 146 -21 278 -28 455 -63 947 -69 986 -13 74 32 20
105 -123 63 -125 119 -265 159 -398 17 -58 43 -143 57 -190 67 -221 185 -367
360 -443 84 -37 327 -90 376 -82 42 6 111 37 141 64 23 20 57 86 67 130 4 19
3 57 -3 86 l-10 52 84 144 c47 79 122 207 168 284 46 77 104 176 130 220 26
44 83 141 127 215 162 273 224 380 219 380 -1 0 -36 -43 -77 -96 -135 -176
-233 -304 -299 -390 -36 -47 -108 -141 -160 -209 -83 -107 -297 -385 -325
-422 -8 -10 -18 -11 -40 -4 -17 5 -57 14 -90 21 -101 20 -138 37 -164 75 -13
20 -46 109 -72 198 -132 453 -277 736 -478 938 -156 156 -322 252 -521 302
-114 28 -250 45 -250 31 0 -22 30 -324 95 -974 13 -135 29 -294 35 -355 6 -60
17 -173 25 -250 8 -77 15 -150 15 -161 0 -13 -48 -76 -126 -164 l-126 -142
-144 144 -144 143 24 190 c14 105 32 251 41 325 8 74 22 187 30 250 9 63 38
300 66 525 27 226 52 425 56 444 l6 34 -99 -6 c-362 -23 -696 -246 -907 -607
-79 -134 -168 -381 -212 -590 -35 -166 -75 -496 -75 -622 0 -141 145 -249 294
-218 51 10 67 20 112 64 60 61 65 78 84 296 28 333 97 612 200 808 22 42 49
88 60 102 l20 25 0 -75 c0 -41 -7 -192 -14 -335 -8 -143 -17 -334 -21 -425 -3
-91 -10 -203 -15 -250 -5 -47 -12 -124 -15 -172 l-7 -88 -499 0 -499 0 0 2000
0 2000 2690 0 2690 0 0 -2000z"/>
<path d="M1985 4941 c-64 -11 -186 -54 -233 -83 -143 -86 -238 -199 -299 -353
-25 -65 -27 -81 -27 -210 0 -134 1 -143 32 -219 48 -119 102 -194 201 -276
239 -200 603 -206 852 -14 133 102 217 238 246 399 30 165 -12 348 -111 483
-45 61 -63 78 -141 142 -128 104 -347 159 -520 131z"/>
<path d="M3290 4715 l0 -225 1060 0 1060 0 0 225 0 225 -1060 0 -1060 0 0
-225z"/>
<path d="M4130 3865 l0 -225 638 2 637 3 3 223 2 222 -640 0 -640 0 0 -225z"/>
<path d="M4825 3257 c-3 -7 -4 -107 -3 -222 l3 -210 293 -3 292 -2 -2 222 -3
223 -288 3 c-228 2 -289 0 -292 -11z"/>
</g>
</svg>
