<?xml version="1.0" standalone="no"?>
<!DOCTYPE svg PUBLIC "-//W3C//DTD SVG 20010904//EN"
 "http://www.w3.org/TR/2001/REC-SVG-20010904/DTD/svg10.dtd">
<svg version="1.0" xmlns="http://www.w3.org/2000/svg"
 width="225.000000pt" height="225.000000pt" viewBox="0 0 225.000000 225.000000"
 preserveAspectRatio="xMidYMid meet">

<g transform="translate(0.000000,225.000000) scale(0.100000,-0.100000)"
fill="#000000" stroke="none">
<path d="M632 1787 c-271 -272 -393 -401 -399 -422 -13 -50 -8 -138 10 -172
30 -57 88 -105 176 -146 47 -21 257 -116 465 -209 l379 -170 379 379 c414 414
415 416 344 449 l-33 16 -6 107 -5 106 40 41 c22 23 36 44 30 48 -5 3 -47 19
-93 37 -140 51 -677 248 -790 289 l-106 38 -391 -391z m1285 -226 l-5 -84
-328 -328 -329 -329 -9 101 -8 102 333 333 c376 376 355 364 346 205z m-1091
-373 l381 -161 7 -115 c3 -63 5 -117 3 -118 -2 -2 -192 82 -423 187 -291 133
-427 200 -446 220 -39 41 -40 118 -3 155 24 24 26 24 62 9 21 -9 209 -88 419
-177z"/>
<path d="M1591 932 l-325 -318 -260 114 c-144 63 -333 145 -421 183 l-159 69
-93 -92 c-84 -84 -93 -97 -104 -146 -27 -134 37 -227 209 -302 54 -23 140 -62
192 -85 52 -24 216 -98 364 -164 l269 -121 379 379 c340 340 379 382 376 408
-2 20 -12 32 -34 43 l-32 15 -4 105 -5 105 40 42 c23 24 39 44 36 46 -7 6 -89
37 -97 37 -4 0 -153 -144 -331 -318z m326 29 l-5 -84 -328 -329 -329 -328 -9
101 -8 102 333 333 c376 376 355 364 346 205z m-1127 -356 c227 -96 414 -176
415 -177 1 -2 5 -56 9 -120 l7 -118 -43 19 c-24 10 -216 98 -428 195 -275 126
-391 184 -407 204 -33 39 -32 114 2 147 13 14 26 25 28 25 2 0 190 -79 417
-175z"/>
</g>
</svg>
