<?xml version="1.0" standalone="no"?>
<!DOCTYPE svg PUBLIC "-//W3C//DTD SVG 20010904//EN"
 "http://www.w3.org/TR/2001/REC-SVG-20010904/DTD/svg10.dtd">
<svg version="1.0" xmlns="http://www.w3.org/2000/svg"
 width="500.000000pt" height="500.000000pt" viewBox="0 0 500.000000 500.000000"
 preserveAspectRatio="xMidYMid meet">

<g transform="translate(0.000000,500.000000) scale(0.100000,-0.100000)"
fill="#000000" stroke="none">
<path d="M2412 4990 c-40 -6 -95 -24 -149 -50 -202 -98 -321 -301 -311 -528
l3 -73 -101 -43 c-196 -83 -353 -195 -524 -372 -162 -169 -279 -361 -353 -585
-79 -236 -87 -321 -87 -975 0 -636 10 -583 -114 -595 -243 -23 -443 -184 -510
-408 -10 -34 -16 -92 -16 -154 0 -168 56 -296 181 -411 69 -65 168 -116 257
-135 35 -7 229 -11 571 -11 l518 0 21 -85 c66 -270 264 -471 532 -542 86 -23
253 -23 340 0 169 44 333 159 425 297 64 96 91 164 120 303 l5 27 520 0 c335
0 538 4 572 11 198 41 371 207 423 405 20 77 19 225 -1 295 -67 224 -267 385
-508 408 -126 12 -114 -52 -119 634 -4 552 -5 599 -25 688 -55 259 -157 490
-298 682 -106 144 -289 316 -443 414 -63 41 -269 143 -289 143 -9 0 -11 18 -6
78 12 157 -44 310 -156 422 -67 67 -170 129 -245 148 -62 16 -164 21 -233 12z
m184 -334 c82 -38 134 -116 134 -202 l0 -31 -177 1 c-98 1 -200 -1 -228 -4
-49 -4 -50 -4 -53 24 -5 45 17 110 51 151 38 47 117 85 177 85 26 0 66 -10 96
-24z m117 -561 c263 -46 485 -163 683 -360 157 -156 265 -334 333 -547 57
-181 61 -228 61 -824 0 -304 4 -563 10 -592 33 -178 162 -290 366 -316 103
-13 140 -27 193 -72 51 -43 75 -99 75 -174 0 -74 -22 -125 -76 -177 -71 -68
75 -63 -1858 -63 -1933 0 -1787 -5 -1858 63 -89 85 -104 207 -38 305 49 73
105 102 231 118 157 21 254 79 323 195 50 83 52 113 52 719 0 629 3 673 65
857 65 193 150 335 289 481 200 208 434 337 706 386 104 19 337 19 443 1z
m177 -3467 c0 -38 -44 -120 -94 -175 -33 -36 -71 -64 -124 -90 -72 -36 -81
-38 -172 -38 -91 0 -100 2 -172 38 -53 26 -91 54 -124 90 -50 55 -94 137 -94
175 l0 22 390 0 390 0 0 -22z"/>
<path d="M916 4385 c-96 -34 -329 -329 -464 -585 -107 -203 -210 -521 -197
-603 13 -71 80 -127 155 -127 85 0 139 52 165 162 75 309 233 601 459 845 82
90 91 109 84 184 -10 97 -109 158 -202 124z"/>
<path d="M3983 4389 c-44 -13 -90 -62 -103 -110 -18 -65 1 -110 82 -197 224
-241 389 -544 463 -850 26 -107 80 -162 159 -162 75 0 136 45 156 114 10 37 8
55 -15 146 -72 287 -191 536 -374 781 -91 121 -202 244 -240 264 -38 19 -91
25 -128 14z"/>
</g>
</svg>
