<?xml version="1.0" standalone="no"?>
<!DOCTYPE svg PUBLIC "-//W3C//DTD SVG 20010904//EN"
 "http://www.w3.org/TR/2001/REC-SVG-20010904/DTD/svg10.dtd">
<svg version="1.0" xmlns="http://www.w3.org/2000/svg"
 width="224.000000pt" height="225.000000pt" viewBox="0 0 224.000000 225.000000"
 preserveAspectRatio="xMidYMid meet">

<g transform="translate(0.000000,225.000000) scale(0.100000,-0.100000)"
fill="#000000" stroke="none">
<path d="M1047 2239 c-50 -15 -131 -89 -152 -141 -10 -26 -15 -64 -14 -101 l3
-59 -269 -209 -268 -209 -101 0 c-148 -1 -211 -35 -236 -131 -7 -26 -10 -250
-8 -651 3 -662 2 -642 56 -691 51 -47 40 -46 1067 -46 920 -1 972 0 1010 18
22 10 48 28 58 39 45 50 46 65 46 692 0 327 -4 613 -9 634 -12 54 -38 87 -90
114 -37 18 -60 22 -145 22 l-102 0 -268 209 -269 209 3 50 c5 102 -44 189
-132 234 -47 24 -128 31 -180 17z m123 -144 c37 -19 50 -43 50 -93 0 -44 -34
-88 -77 -98 -60 -15 -123 35 -123 98 0 49 13 73 48 92 35 20 66 20 102 1z
m-150 -311 c72 -37 194 -19 256 37 20 19 22 18 223 -139 l203 -157 -291 -3
c-160 -1 -422 -1 -582 0 l-291 3 203 157 c201 157 203 158 223 139 12 -10 37
-27 56 -37z m1092 -391 c17 -15 18 -48 18 -631 0 -559 -2 -617 -17 -634 -15
-17 -59 -18 -991 -18 -894 0 -977 1 -994 17 -17 15 -18 48 -18 631 0 559 2
617 17 634 15 17 59 18 991 18 894 0 977 -1 994 -17z"/>
<path d="M765 1191 c-43 -18 -59 -50 -63 -122 -5 -82 9 -124 49 -144 38 -20
128 -19 158 1 69 49 68 212 -2 254 -33 21 -105 26 -142 11z m103 -124 c3 -67
-8 -87 -49 -87 l-29 0 0 69 c0 73 6 81 55 78 17 -2 20 -10 23 -60z"/>
<path d="M1455 1191 c-41 -17 -59 -50 -63 -116 -8 -124 29 -169 136 -163 l57
3 3 36 3 37 -53 -2 -53 -1 -3 67 c-3 65 -2 68 23 74 14 3 36 3 49 0 21 -5 25
-2 31 25 5 22 3 34 -6 40 -17 11 -97 10 -124 0z"/>
<path d="M400 1049 l0 -140 43 3 42 3 3 53 3 54 37 -54 c35 -49 41 -53 77 -53
l40 0 3 138 3 137 -46 0 -45 0 0 -57 0 -57 -36 57 c-35 55 -37 57 -80 57 l-44
0 0 -141z"/>
<path d="M990 1155 c0 -32 2 -35 30 -35 l29 0 3 -102 3 -103 43 -3 42 -3 0
105 0 106 35 0 c33 0 35 2 35 35 l0 35 -110 0 -110 0 0 -35z"/>
<path d="M1250 1050 l0 -140 45 0 45 0 0 140 0 140 -45 0 -45 0 0 -140z"/>
<path d="M1642 1053 l3 -138 98 -3 97 -3 0 36 0 35 -55 0 c-48 0 -55 2 -55 20
0 17 7 20 45 20 43 0 45 1 45 30 0 29 -2 30 -45 30 -38 0 -45 3 -45 20 0 17 7
20 49 20 48 0 49 0 53 35 l4 35 -98 0 -99 0 3 -137z"/>
<path d="M382 708 c-16 -16 -15 -43 2 -57 9 -8 212 -10 741 -9 681 3 729 4
739 20 8 13 8 23 0 35 -10 17 -58 18 -741 21 -558 2 -732 -1 -741 -10z"/>
<path d="M590 415 c-10 -12 -10 -21 -2 -40 l12 -25 519 0 c510 0 521 0 531 20
8 14 8 26 0 40 -10 20 -21 20 -529 20 -453 0 -520 -2 -531 -15z"/>
</g>
</svg>
