<?xml version="1.0" standalone="no"?>
<!DOCTYPE svg PUBLIC "-//W3C//DTD SVG 20010904//EN"
 "http://www.w3.org/TR/2001/REC-SVG-20010904/DTD/svg10.dtd">
<svg version="1.0" xmlns="http://www.w3.org/2000/svg"
 width="500.000000pt" height="500.000000pt" viewBox="0 0 500.000000 500.000000"
 preserveAspectRatio="xMidYMid meet">

<g transform="translate(0.000000,500.000000) scale(0.100000,-0.100000)"
fill="#000000" stroke="none">
<path d="M575 4895 l-25 -24 0 -2055 c0 -1130 3 -2062 6 -2071 13 -34 59 -45
184 -45 l120 0 0 -130 c0 -126 1 -132 25 -155 23 -24 29 -25 154 -25 l129 0 4
-136 c3 -129 4 -137 27 -155 23 -18 58 -19 1304 -19 l1282 0 332 333 333 332
0 1752 c0 1708 0 1751 -19 1774 -18 23 -26 24 -155 27 l-136 4 0 129 c0 125
-1 131 -25 154 -23 24 -29 25 -154 25 l-129 0 -4 136 c-3 129 -4 137 -27 155
-23 19 -63 19 -1613 19 l-1589 0 -24 -25z m3095 -205 l0 -80 -1380 0 -1381 0
-24 -25 -25 -24 0 -1851 0 -1850 -80 0 -80 0 0 1948 c0 1072 3 1952 7 1955 3
4 672 7 1485 7 l1478 0 0 -80z m320 -315 l0 -75 -1381 0 -1381 0 -29 -29 -29
-29 0 -1846 0 -1846 -80 0 -80 0 0 1950 0 1950 1490 0 1490 0 0 -75z m310
-1875 l0 -1640 -280 0 c-296 0 -319 -3 -339 -47 -7 -16 -11 -120 -11 -303 l0
-280 -1170 0 -1170 0 0 1955 0 1955 1485 0 1485 0 0 -1640z m-120 -1803 c0 -1
-79 -81 -175 -177 l-175 -175 0 178 0 177 175 0 c96 0 175 -1 175 -3z"/>
<path d="M2682 3819 c-326 -42 -626 -254 -771 -545 -160 -322 -146 -684 39
-995 53 -89 200 -243 290 -303 283 -190 640 -227 960 -100 284 113 516 380
596 689 22 82 26 124 27 235 2 138 -7 202 -45 320 -89 279 -319 527 -589 633
-167 66 -337 88 -507 66z m296 -165 c423 -87 711 -453 689 -878 -7 -132 -26
-212 -78 -324 -110 -237 -308 -404 -564 -473 -116 -32 -307 -32 -424 0 -151
40 -284 117 -393 228 -85 86 -118 131 -167 229 -64 127 -86 226 -85 379 1 187
42 323 141 472 189 286 549 436 881 367z"/>
<path d="M2495 3347 c-68 -23 -101 -44 -148 -97 -76 -85 -77 -90 -77 -527 l0
-383 75 0 75 0 0 120 0 121 158 -3 157 -3 2 -115 1 -115 76 -3 77 -3 -3 393
c-3 377 -4 395 -24 439 -30 65 -87 124 -148 154 -64 31 -163 41 -221 22z m165
-170 c68 -45 75 -71 75 -267 l0 -175 -157 -3 -158 -3 0 171 c0 183 7 217 51
260 33 30 56 39 110 39 32 1 56 -6 79 -22z"/>
<path d="M3207 3043 c-4 -3 -7 -39 -7 -80 l0 -73 -75 0 -75 0 0 -75 0 -75 75
0 75 0 0 -80 0 -80 80 0 80 0 0 80 0 80 78 0 77 0 0 75 0 75 -77 0 -78 0 0 80
0 80 -73 0 c-41 0 -77 -3 -80 -7z"/>
<path d="M1604 1628 c-38 -18 -44 -51 -44 -229 l0 -171 30 -29 30 -30 186 3
c242 4 224 -14 224 235 0 248 14 233 -227 232 -101 0 -187 -5 -199 -11z m274
-220 l3 -78 -81 0 -80 0 0 80 0 81 78 -3 77 -3 3 -77z"/>
<path d="M2190 1565 l0 -75 545 0 545 0 0 75 0 75 -545 0 -545 0 0 -75z"/>
<path d="M2190 1250 l0 -80 820 0 820 0 0 80 0 80 -820 0 -820 0 0 -80z"/>
<path d="M3989 1325 c0 -3 0 -38 -1 -77 l0 -73 76 -3 76 -3 0 81 0 80 -75 0
c-41 0 -75 -2 -76 -5z"/>
<path d="M1580 983 c-20 -26 -21 -36 -18 -211 4 -239 -14 -222 235 -222 248 0
233 -14 233 228 0 166 -2 181 -21 206 l-20 26 -194 0 -194 0 -21 -27z m298
-200 l-3 -78 -77 -3 -78 -3 0 81 0 80 80 0 81 0 -3 -77z"/>
<path d="M2190 935 l0 -75 545 0 545 0 0 75 0 75 -545 0 -545 0 0 -75z"/>
<path d="M2190 625 l0 -75 505 0 505 0 0 75 0 75 -505 0 -505 0 0 -75z"/>
<path d="M3360 625 l0 -75 78 0 77 0 0 75 0 75 -77 0 -78 0 0 -75z"/>
</g>
</svg>
