<?xml version="1.0" standalone="no"?>
<!DOCTYPE svg PUBLIC "-//W3C//DTD SVG 20010904//EN"
 "http://www.w3.org/TR/2001/REC-SVG-20010904/DTD/svg10.dtd">
<svg version="1.0" xmlns="http://www.w3.org/2000/svg"
 width="225.000000pt" height="225.000000pt" viewBox="0 0 225.000000 225.000000"
 preserveAspectRatio="xMidYMid meet">

<g transform="translate(0.000000,225.000000) scale(0.100000,-0.100000)"
fill="#000000" stroke="none">
<path d="M454 2238 l-32 -8 36 -142 c19 -79 36 -145 38 -147 2 -2 18 -1 37 3
l35 6 -35 137 c-19 76 -37 142 -41 148 -5 8 -17 9 -38 3z"/>
<path d="M1550 2218 c-5 -13 -14 -54 -19 -92 -17 -115 -49 -123 -115 -31 -58
80 -69 89 -98 74 -13 -7 -42 -27 -65 -44 -40 -30 -48 -32 -150 -37 -358 -18
-619 -261 -678 -630 -3 -21 -10 -38 -15 -38 -20 0 -38 -32 -45 -78 -10 -76
-15 -79 -72 -38 -28 20 -59 36 -69 36 -24 0 -144 -119 -144 -143 0 -10 16 -41
35 -69 19 -29 33 -54 31 -56 -2 -2 -32 -10 -67 -18 -35 -8 -67 -20 -71 -27 -4
-7 -8 -51 -8 -99 0 -100 -1 -98 92 -118 32 -6 58 -13 58 -16 0 -2 -16 -26 -35
-53 -19 -26 -35 -57 -35 -68 0 -11 30 -49 70 -87 77 -75 71 -74 155 -14 l40
30 13 -49 c28 -108 15 -98 127 -98 l100 0 11 40 c7 22 16 55 20 73 l9 34 40
-30 c79 -56 80 -57 125 -16 l40 36 0 -63 c0 -72 26 -141 59 -159 20 -10 21
-19 21 -136 0 -140 8 -167 62 -206 30 -21 43 -23 158 -23 115 0 128 2 158 23
54 39 62 66 62 206 0 117 1 126 21 136 40 22 59 85 59 200 0 131 11 156 102
228 l68 54 -23 27 -22 27 -68 -50 c-42 -30 -78 -67 -95 -95 -24 -42 -27 -58
-32 -173 -5 -116 -7 -128 -29 -152 l-24 -26 -176 0 c-190 1 -201 4 -221 54 -5
15 -10 73 -10 130 0 138 -22 185 -124 260 -141 104 -227 228 -266 382 -65 254
45 529 269 676 41 27 107 58 150 72 92 28 191 41 191 25 0 -6 23 -42 51 -80
33 -45 49 -76 47 -91 -3 -20 -9 -23 -53 -23 -27 0 -70 3 -95 7 -25 4 -52 3
-59 -2 -15 -9 -54 -242 -44 -266 6 -16 18 -19 118 -34 65 -10 85 -21 85 -45 0
-17 -12 -29 -77 -79 -44 -33 -63 -54 -63 -69 0 -26 138 -210 161 -215 8 -1 45
20 82 48 44 33 76 50 90 48 20 -3 22 -9 22 -58 0 -30 -3 -74 -6 -96 -4 -23 -3
-47 1 -54 9 -14 243 -52 266 -43 16 6 20 19 34 108 19 119 46 125 119 26 28
-38 58 -72 66 -75 18 -7 219 141 223 165 1 8 -20 45 -48 82 -81 106 -67 130
63 112 45 -7 87 -10 94 -8 16 6 20 19 38 152 12 93 13 117 3 127 -7 6 -49 17
-92 23 -128 18 -138 44 -42 114 85 62 90 70 75 99 -16 30 -130 181 -143 190
-20 14 -33 8 -100 -43 -43 -32 -75 -49 -89 -47 -20 3 -22 8 -20 73 1 38 4 81
7 95 8 44 -6 53 -126 71 -146 23 -147 23 -158 -3z m144 -68 c32 -5 60 -11 62
-13 2 -2 -1 -31 -6 -65 -12 -72 2 -120 44 -147 44 -29 91 -22 156 24 l59 41
45 -59 46 -59 -50 -37 c-63 -46 -80 -70 -80 -113 0 -70 39 -108 121 -118 82
-9 82 -9 69 -90 -6 -37 -12 -70 -14 -71 -1 -1 -31 3 -68 9 -75 12 -107 2 -142
-45 -29 -39 -26 -87 10 -137 16 -22 35 -49 42 -60 12 -16 7 -23 -47 -64 l-59
-46 -37 50 c-48 66 -70 80 -123 80 -60 0 -98 -38 -107 -106 -12 -96 -12 -97
-48 -91 -18 3 -51 9 -74 12 l-43 7 7 41 c16 91 10 124 -24 159 -48 48 -94 45
-172 -9 l-59 -42 -41 53 c-23 29 -41 57 -41 63 0 6 18 23 41 39 61 42 79 70
79 121 0 67 -35 97 -129 113 l-73 12 5 32 c3 17 9 50 12 74 l7 43 46 -8 c108
-18 159 2 182 72 13 39 3 70 -46 136 l-35 47 60 46 60 46 42 -55 c48 -64 65
-75 111 -75 69 0 117 56 118 135 0 34 12 65 24 65 6 0 37 -4 70 -10z m-1255
-922 c5 -18 11 -43 15 -55 6 -20 4 -23 -17 -23 -14 0 -47 -15 -73 -32 -120
-81 -136 -237 -35 -338 95 -94 218 -94 314 2 l47 47 53 -42 c28 -24 59 -55 67
-70 15 -26 14 -28 -26 -68 l-42 -41 -45 31 c-72 49 -129 39 -146 -27 -5 -20
-12 -49 -15 -64 -6 -25 -11 -28 -50 -28 l-45 0 -12 57 c-7 31 -21 65 -31 75
-27 27 -73 22 -125 -13 l-45 -31 -35 34 -35 35 33 46 c34 49 42 95 20 121 -12
14 -35 22 -113 40 -25 6 -28 11 -28 51 l0 44 60 12 c100 19 119 68 60 153
l-32 48 34 35 34 34 54 -36 c40 -27 60 -35 79 -30 29 7 61 39 61 63 0 24 11 7
19 -30z m71 -188 c11 -21 40 -64 65 -94 25 -31 45 -63 45 -72 0 -25 -54 -71
-96 -83 -99 -27 -184 40 -184 144 0 56 21 96 66 126 48 32 80 25 104 -21z
m770 -740 l0 -40 -150 0 -150 0 0 40 0 40 150 0 150 0 0 -40z m0 -142 c-1 -64
-42 -88 -149 -88 -113 0 -151 22 -151 89 l0 31 150 0 150 0 0 -32z"/>
<path d="M1507 1876 c-156 -58 -234 -223 -180 -382 23 -67 110 -154 177 -177
142 -48 298 14 369 148 30 55 31 203 3 255 -59 111 -138 162 -256 167 -48 2
-89 -2 -113 -11z m181 -72 c183 -76 188 -326 8 -410 -65 -30 -118 -30 -181 0
-60 28 -87 56 -114 116 -36 79 -23 161 38 231 62 73 164 99 249 63z"/>
<path d="M121 2014 c-12 -15 -20 -28 -19 -29 2 -1 60 -43 130 -93 l127 -91 21
26 c11 14 20 28 20 32 -1 6 -234 173 -250 179 -4 2 -17 -9 -29 -24z"/>
<path d="M765 1748 c-107 -108 -155 -223 -155 -371 0 -191 116 -375 290 -462
41 -20 90 -49 109 -62 37 -28 81 -113 81 -156 0 -26 2 -28 38 -25 35 3 37 5
34 33 -12 116 -77 199 -208 264 -110 55 -183 125 -225 216 -86 184 -53 371 91
515 65 65 65 66 50 93 -8 15 -19 27 -24 27 -4 0 -41 -33 -81 -72z"/>
<path d="M182 1642 l-143 -36 7 -31 c3 -16 8 -32 11 -35 5 -5 275 60 286 69 8
8 -2 72 -12 70 -3 -1 -70 -17 -149 -37z"/>
<path d="M1840 826 l0 -35 130 -3 130 -3 0 38 0 37 -130 0 -130 0 0 -34z"/>
<path d="M1800 633 c-11 -14 -17 -30 -13 -34 25 -23 216 -179 217 -177 0 2 11
15 24 29 l22 26 -110 91 c-61 51 -112 92 -115 92 -2 0 -13 -12 -25 -27z"/>
<path d="M1097 594 c-4 -4 -7 -29 -7 -56 l0 -48 41 0 40 0 -3 53 c-3 50 -4 52
-33 55 -17 2 -34 0 -38 -4z"/>
<path d="M1620 430 l0 -130 35 0 35 0 0 130 0 130 -35 0 -35 0 0 -130z"/>
</g>
</svg>
