<?xml version="1.0" standalone="no"?>
<!DOCTYPE svg PUBLIC "-//W3C//DTD SVG 20010904//EN"
 "http://www.w3.org/TR/2001/REC-SVG-20010904/DTD/svg10.dtd">
<svg version="1.0" xmlns="http://www.w3.org/2000/svg"
 width="512.000000pt" height="512.000000pt" viewBox="0 0 512.000000 512.000000"
 preserveAspectRatio="xMidYMid meet">

<g transform="translate(0.000000,512.000000) scale(0.100000,-0.100000)"
fill="#000000" stroke="none">
<path d="M193 5104 c-53 -19 -128 -85 -156 -138 l-22 -41 -3 -1395 -2 -1395
31 -63 c32 -66 85 -114 152 -139 23 -8 229 -12 759 -12 l727 -1 6 -21 c9 -26
-2 -145 -21 -227 -41 -182 -160 -298 -333 -325 l-71 -11 0 -143 0 -143 848 2
847 3 3 141 3 142 -63 7 c-237 27 -368 199 -368 482 l0 93 435 0 c249 0 435
-4 435 -9 0 -5 -7 -44 -16 -87 -20 -97 -15 -194 14 -250 23 -44 88 -108 121
-119 27 -8 26 -14 -5 -56 -44 -60 -112 -191 -138 -271 -46 -136 -30 -264 44
-366 47 -65 671 -633 742 -675 103 -62 184 -82 318 -81 96 0 128 5 195 27 203
67 371 250 419 457 22 91 20 230 -3 322 -23 89 -54 153 -109 227 -47 62 -603
577 -677 627 -188 127 -407 90 -648 -109 l-48 -39 -45 17 c-96 37 -124 131
-89 300 l18 85 251 0 c231 0 255 2 296 21 58 26 105 72 138 134 l27 50 3 1369
c3 1513 6 1430 -61 1517 -17 23 -57 56 -87 73 l-55 31 -1885 2 c-1645 1 -1890
0 -1927 -13z m3717 -1399 l0 -1105 -1205 0 -1205 0 0 370 0 370 40 0 40 0 0
-130 c0 -142 8 -171 56 -209 18 -14 41 -21 70 -21 40 0 64 14 270 152 154 104
231 162 241 182 11 20 14 46 10 80 l-5 51 222 152 c121 83 222 150 224 148 2
-2 -24 -89 -57 -194 -34 -106 -61 -194 -61 -197 0 -3 28 -4 61 -2 l62 3 26 90
27 90 105 3 105 3 29 -96 28 -95 65 0 c59 0 64 2 59 20 -5 20 -5 20 20 0 51
-40 134 -38 197 5 l36 24 6 -24 c6 -22 11 -25 56 -25 l50 0 -4 183 c-3 171 -4
184 -27 224 -36 64 -90 86 -189 81 -42 -2 -94 -11 -114 -20 -37 -16 -37 -17
-26 -50 6 -18 12 -34 13 -36 1 -1 30 5 64 14 79 22 132 10 151 -36 7 -17 11
-33 8 -35 -2 -3 -34 -9 -72 -14 -116 -17 -183 -62 -202 -137 l-7 -29 -8 25
c-4 14 -42 132 -84 263 l-76 238 -77 -3 -76 -3 -26 -82 c-14 -46 -32 -89 -40
-97 -8 -7 -124 -89 -258 -181 l-243 -167 -44 12 c-24 7 -55 10 -69 6 -14 -3
-69 -38 -124 -76 -55 -39 -102 -70 -106 -70 -3 0 -6 12 -6 27 0 45 -30 136
-59 178 -36 54 -108 106 -184 135 -51 19 -87 24 -203 28 l-142 4 -68 -116
c-38 -63 -71 -115 -74 -115 -3 0 -36 52 -74 115 l-68 116 -152 -4 c-127 -4
-160 -8 -210 -28 -110 -42 -183 -133 -205 -255 -7 -36 -11 -211 -11 -452 l0
-393 -40 0 -40 0 0 1105 0 1105 1800 0 1800 0 0 -1105z m-1016 -4 c26 -71 26
-71 -64 -71 -44 0 -80 3 -80 6 0 15 64 210 72 221 5 7 7 17 3 23 -3 5 -3 15 1
22 4 6 17 -26 30 -73 12 -46 30 -104 38 -128z m466 -165 c0 -48 -3 -57 -31
-80 -57 -49 -129 -26 -129 41 0 38 27 70 67 79 16 3 33 7 38 9 6 2 20 4 33 4
20 1 22 -3 22 -53z m-2640 -566 l0 -370 -45 0 -45 0 0 370 0 370 45 0 45 0 0
-370z m1505 -564 c86 -66 96 -185 21 -260 -79 -78 -198 -62 -264 35 -32 46
-28 138 7 188 52 73 165 91 236 37z m1956 -775 c60 -23 123 -70 243 -183 l89
-84 -18 -54 c-89 -274 -344 -559 -658 -737 l-59 -33 -106 97 c-196 181 -222
215 -237 315 -21 139 139 427 313 563 64 51 157 102 216 121 62 19 158 17 217
-5z m636 -548 c91 -89 117 -121 147 -183 125 -255 48 -558 -181 -713 -87 -60
-166 -87 -273 -94 -167 -11 -282 37 -450 189 -63 57 -132 119 -153 138 l-40
36 66 38 c194 113 420 323 535 495 59 88 142 247 142 271 0 16 76 -49 207
-177z"/>
<path d="M1007 4376 c-83 -30 -145 -91 -183 -181 -12 -30 -15 -60 -12 -120 6
-98 27 -145 99 -209 146 -131 371 -83 459 99 32 67 34 179 3 246 -48 108 -156
179 -268 179 -33 -1 -77 -7 -98 -14z"/>
<path d="M1794 4209 c-17 -19 -19 -41 -22 -263 l-3 -241 46 -60 c25 -33 48
-70 51 -82 7 -28 16 -29 37 -5 15 16 17 50 17 275 l0 257 855 0 855 0 0 -620
0 -620 -855 0 -855 0 0 65 c0 36 -2 65 -5 65 -2 0 -34 -21 -70 -46 l-65 -46 0
-72 c0 -58 4 -76 18 -89 17 -16 98 -17 956 -17 1007 0 978 -1 1006 49 6 13 10
258 10 719 0 692 0 700 -21 726 l-20 26 -958 0 -958 0 -19 -21z"/>
<path d="M3750 1382 c-50 -26 -84 -97 -75 -154 6 -38 20 -56 129 -161 135
-131 186 -163 243 -152 100 18 154 126 108 214 -17 35 -230 233 -273 255 -41
21 -89 20 -132 -2z m205 -174 c61 -56 115 -111 121 -122 26 -48 -33 -104 -78
-73 -47 32 -223 201 -232 223 -13 32 16 74 52 74 20 0 54 -25 137 -102z"/>
</g>
</svg>
