<?xml version="1.0" standalone="no"?>
<!DOCTYPE svg PUBLIC "-//W3C//DTD SVG 20010904//EN"
 "http://www.w3.org/TR/2001/REC-SVG-20010904/DTD/svg10.dtd">
<svg version="1.0" xmlns="http://www.w3.org/2000/svg"
 width="271.000000pt" height="186.000000pt" viewBox="0 0 271.000000 186.000000"
 preserveAspectRatio="xMidYMid meet">

<g transform="translate(0.000000,186.000000) scale(0.100000,-0.100000)"
fill="#000000" stroke="none">
<path d="M1160 1602 c-129 -65 -434 -216 -678 -336 l-443 -219 156 -71 155
-70 0 -159 c0 -155 -1 -160 -25 -189 -33 -39 -33 -87 0 -126 l25 -29 -30 -89
c-17 -48 -30 -91 -30 -96 0 -4 41 -8 91 -8 69 0 90 3 87 12 -3 7 -17 50 -33
96 l-27 84 25 26 c39 42 40 101 2 136 -24 23 -25 26 -25 169 l0 146 106 -50
c100 -47 108 -49 128 -34 150 111 335 212 466 255 329 109 616 40 921 -221
l56 -48 286 126 c158 70 287 130 287 133 0 9 -1237 680 -1252 679 -7 0 -119
-53 -248 -117z"/>
<path d="M1212 920 c-125 -23 -290 -98 -375 -171 l-47 -41 2 -250 3 -251 55
-38 c122 -85 279 -123 505 -122 224 0 390 38 543 125 l72 42 -2 250 -3 250
-57 46 c-69 56 -181 112 -279 140 -85 25 -326 36 -417 20z m458 -525 c97 -21
174 -56 196 -90 16 -25 16 -27 -3 -53 -24 -32 -107 -68 -212 -89 -113 -24
-436 -23 -556 1 -325 64 -288 196 70 245 103 14 415 5 505 -14z"/>
</g>
</svg>
