<?xml version="1.0" standalone="no"?>
<!DOCTYPE svg PUBLIC "-//W3C//DTD SVG 20010904//EN"
 "http://www.w3.org/TR/2001/REC-SVG-20010904/DTD/svg10.dtd">
<svg version="1.0" xmlns="http://www.w3.org/2000/svg"
 width="980.000000pt" height="924.000000pt" viewBox="0 0 980.000000 924.000000"
 preserveAspectRatio="xMidYMid meet">

<g transform="translate(0.000000,924.000000) scale(0.100000,-0.100000)"
fill="#000000" stroke="none">
<path d="M1927 9216 c-95 -34 -167 -115 -187 -209 -8 -36 -10 -242 -8 -672 3
-607 3 -621 24 -665 27 -57 87 -117 144 -144 42 -19 62 -21 265 -21 219 0 220
0 271 27 63 33 116 91 140 154 18 46 19 85 19 684 l0 635 -24 53 c-29 65 -104
134 -168 156 -62 21 -418 22 -476 2z"/>
<path d="M5093 9213 c-61 -21 -136 -92 -164 -155 l-24 -53 0 -640 0 -640 24
-53 c31 -69 106 -137 174 -157 71 -21 393 -21 464 0 64 19 143 88 175 153 l23
47 0 645 c0 511 -3 653 -13 683 -22 61 -104 143 -168 166 -49 19 -76 21 -252
20 -148 0 -208 -4 -239 -16z"/>
<path d="M184 8634 c-57 -20 -114 -72 -149 -135 l-30 -54 0 -3830 0 -3830 31
-55 c34 -61 105 -121 164 -139 27 -8 548 -11 1913 -11 l1876 0 256 283 257
282 -1849 5 -1848 5 -50 23 c-60 27 -118 82 -148 137 l-22 40 0 3260 0 3260
22 42 c30 55 83 106 141 135 46 22 55 23 370 26 l322 3 0 285 0 284 -607 -1
c-506 0 -615 -3 -649 -15z"/>
<path d="M2880 8365 l0 -285 870 0 870 0 0 285 0 285 -870 0 -870 0 0 -285z"/>
<path d="M6060 8366 l0 -285 323 -3 c282 -3 327 -6 360 -21 56 -26 127 -95
151 -147 l21 -45 5 -2027 5 -2028 288 317 287 317 -2 1996 -3 1996 -30 59
c-34 66 -101 125 -165 144 -26 8 -221 11 -639 11 l-601 0 0 -284z"/>
<path d="M1509 6897 c-61 -40 -69 -70 -69 -262 0 -192 8 -222 69 -262 l34 -23
2206 0 c2169 0 2207 0 2238 20 64 39 68 53 68 265 0 212 -4 226 -68 265 -31
20 -69 20 -2238 20 l-2206 0 -34 -23z"/>
<path d="M1520 5752 c-22 -12 -44 -35 -57 -62 -21 -41 -23 -58 -23 -209 0
-198 12 -236 84 -270 l43 -21 2196 2 2196 3 27 21 c67 50 69 57 69 262 0 212
-7 237 -77 273 -36 19 -93 19 -2230 19 -2103 0 -2195 -1 -2228 -18z"/>
<path d="M1552 4610 c-44 -10 -90 -55 -103 -100 -6 -20 -9 -105 -7 -205 3
-161 4 -172 27 -204 47 -66 -125 -61 2283 -61 2103 0 2195 1 2228 18 22 12 44
35 58 63 22 42 23 53 20 221 -3 193 -6 203 -72 252 l-27 21 -2187 2 c-1203 0
-2202 -3 -2220 -7z"/>
<path d="M8940 4600 c-102 -17 -140 -42 -350 -231 l-160 -144 487 -487 c269
-269 493 -488 500 -488 29 0 320 316 353 385 22 43 25 63 23 140 -1 105 -28
216 -71 301 -105 207 -322 419 -492 481 -98 36 -221 54 -290 43z"/>
<path d="M7675 3477 c-625 -615 -2047 -2057 -2098 -2129 -72 -100 -117 -208
-206 -490 -120 -384 -177 -621 -169 -715 5 -58 29 -99 69 -121 62 -33 359 29
756 159 335 110 446 162 592 277 59 47 2392 2394 2389 2403 -2 3 -219 225
-483 493 l-480 486 -370 -363z"/>
<path d="M1509 3437 c-63 -42 -70 -69 -67 -274 3 -199 6 -208 72 -257 l27 -21
2172 -3 c1522 -2 2188 1 2224 8 66 14 109 59 118 123 4 24 5 113 3 198 -3 142
-5 156 -26 187 -49 67 144 62 -2285 62 l-2204 0 -34 -23z"/>
<path d="M1521 2288 c-70 -35 -81 -69 -81 -268 0 -197 12 -235 79 -269 40 -21
43 -21 1778 -21 l1738 1 255 281 c140 154 257 285 258 289 2 5 -893 9 -1990 9
l-1993 0 -44 -22z"/>
</g>
</svg>
