<?xml version="1.0" standalone="no"?>
<!DOCTYPE svg PUBLIC "-//W3C//DTD SVG 20010904//EN"
 "http://www.w3.org/TR/2001/REC-SVG-20010904/DTD/svg10.dtd">
<svg version="1.0" xmlns="http://www.w3.org/2000/svg"
 width="500.000000pt" height="500.000000pt" viewBox="0 0 500.000000 500.000000"
 preserveAspectRatio="xMidYMid meet">

<g transform="translate(0.000000,500.000000) scale(0.100000,-0.100000)"
fill="#000000" stroke="none">
<path d="M3408 4672 c-15 -9 -88 -91 -164 -182 -268 -321 -708 -845 -739 -881
l-32 -36 -184 149 c-283 230 -295 238 -339 238 -22 0 -46 -7 -58 -17 -34 -30
-222 -348 -222 -376 0 -31 10 -43 240 -292 578 -626 527 -575 576 -575 34 0
46 8 129 93 50 50 187 195 305 322 118 126 291 311 384 410 395 420 446 474
524 558 75 80 82 91 82 128 0 42 -10 54 -336 397 -86 90 -112 100 -166 64z
m171 -342 l112 -119 -73 -78 c-40 -43 -145 -154 -233 -248 -88 -94 -259 -276
-380 -405 -121 -129 -287 -306 -370 -394 l-149 -159 -36 40 c-55 62 -384 418
-482 521 l-88 93 42 67 c23 37 44 71 48 75 4 4 114 -78 244 -183 246 -197 265
-207 316 -180 18 9 184 204 739 867 102 122 189 223 192 223 3 0 56 -54 118
-120z"/>
<path d="M759 3671 c-20 -20 -29 -39 -29 -62 0 -27 15 -47 102 -135 l102 -104
-102 -104 c-89 -90 -102 -107 -102 -137 0 -43 20 -72 59 -89 50 -20 80 -4 183
98 l98 96 100 -99 c94 -94 102 -100 141 -100 53 0 89 38 89 92 0 32 -11 47
-100 137 l-99 101 99 101 c95 96 100 103 100 143 0 58 -33 91 -91 91 -39 0
-47 -6 -138 -95 -54 -52 -101 -95 -106 -95 -5 0 -52 43 -106 95 -87 86 -100
95 -133 95 -28 0 -45 -7 -67 -29z"/>
<path d="M3625 3675 c-19 -18 -25 -35 -25 -65 0 -39 6 -48 100 -144 l99 -102
-99 -99 c-94 -94 -100 -102 -100 -141 0 -54 35 -89 91 -89 36 0 46 8 139 100
l100 99 98 -96 c103 -102 133 -118 183 -98 39 17 59 46 59 89 0 30 -13 47
-102 137 l-102 104 102 104 c115 116 124 139 76 195 -21 26 -33 31 -68 31 -39
0 -47 -5 -136 -95 -52 -52 -99 -95 -104 -95 -5 0 -53 43 -107 95 -91 89 -99
95 -138 95 -31 0 -48 -6 -66 -25z"/>
<path d="M2380 2514 c-441 -95 -609 -637 -300 -967 63 -68 69 -77 47 -77 -21
0 -168 -91 -226 -140 -28 -24 -72 -68 -96 -98 -28 -33 -46 -49 -49 -41 -2 8
-14 43 -25 79 -44 138 -147 272 -273 356 -40 27 -75 50 -76 51 -2 1 14 26 37
55 98 131 123 281 71 432 -38 111 -124 205 -238 259 -64 30 -73 32 -187 32
-115 0 -123 -1 -186 -32 -80 -39 -146 -96 -189 -163 -105 -164 -90 -400 35
-539 l35 -38 -63 -41 c-78 -51 -193 -169 -236 -245 -17 -30 -43 -89 -58 -129
-23 -65 -26 -92 -30 -248 l-5 -175 27 -28 28 -27 581 0 581 0 -3 -210 -4 -209
30 -31 30 -30 862 0 862 0 30 30 30 31 -4 209 -3 210 581 0 581 0 27 26 c26
26 26 28 26 174 0 172 -18 262 -77 379 -45 90 -158 214 -249 272 l-64 42 35
38 c125 139 140 375 35 539 -43 67 -109 124 -189 163 -63 31 -71 32 -186 32
-114 0 -123 -2 -188 -32 -89 -42 -175 -125 -215 -206 -80 -161 -61 -338 49
-485 23 -29 39 -54 37 -55 -1 -1 -36 -24 -76 -51 -85 -57 -162 -138 -214 -227
-32 -54 -46 -88 -84 -207 -2 -9 -23 9 -54 45 -27 32 -70 76 -96 98 -55 46
-201 135 -221 135 -22 0 -16 9 47 77 169 181 207 437 98 662 -46 94 -159 206
-258 255 -128 62 -250 78 -380 50z m284 -212 c83 -39 149 -105 189 -190 29
-61 32 -75 32 -167 0 -93 -2 -105 -33 -167 -41 -85 -128 -167 -209 -199 -81
-32 -205 -32 -286 0 -81 32 -168 114 -209 199 -31 62 -33 74 -33 167 0 92 3
106 32 167 51 108 149 190 260 218 71 18 186 5 257 -28z m-1472 -59 c202 -109
176 -406 -42 -478 -108 -36 -234 6 -297 98 -155 229 96 511 339 380z m2817 21
c126 -37 208 -175 180 -303 -32 -151 -192 -245 -336 -197 -190 63 -244 298
-101 438 75 73 156 92 257 62z m-2820 -719 c130 -31 255 -124 321 -240 40 -70
72 -197 68 -272 -2 -32 -6 -57 -10 -55 -5 1 -233 2 -508 2 l-500 0 0 79 c0
213 132 398 335 469 100 35 193 41 294 17z m2924 -19 c200 -75 327 -256 327
-467 l0 -79 -500 0 c-275 0 -503 0 -507 0 -15 1 -6 165 12 220 55 171 193 302
361 345 87 22 221 14 307 -19z m-1446 -182 c218 -48 422 -222 507 -430 36 -88
56 -201 56 -314 l0 -100 -730 0 -730 0 0 99 c0 176 36 306 119 433 170 259
472 380 778 312z"/>
</g>
</svg>
