<?xml version="1.0" standalone="no"?>
<!DOCTYPE svg PUBLIC "-//W3C//DTD SVG 20010904//EN"
 "http://www.w3.org/TR/2001/REC-SVG-20010904/DTD/svg10.dtd">
<svg version="1.0" xmlns="http://www.w3.org/2000/svg"
 width="500.000000pt" height="500.000000pt" viewBox="0 0 500.000000 500.000000"
 preserveAspectRatio="xMidYMid meet">

<g transform="translate(0.000000,500.000000) scale(0.100000,-0.100000)"
fill="#000000" stroke="none">
<path d="M890 4961 c-31 -10 -77 -30 -103 -45 -64 -38 -158 -130 -173 -169 -7
-18 -22 -57 -34 -87 -34 -84 -39 -209 -11 -296 13 -38 29 -79 37 -91 8 -12 14
-29 14 -37 0 -24 109 -129 170 -163 197 -112 436 -78 594 83 55 56 61 65 102
169 25 61 28 83 28 170 -1 86 -5 112 -31 185 -27 73 -40 94 -94 149 -104 104
-218 151 -359 150 -51 -1 -107 -8 -140 -18z"/>
<path d="M2144 4941 c-46 -11 -89 -45 -108 -85 -14 -30 -16 -100 -16 -623 l1
-588 57 65 c93 107 128 137 197 171 l65 32 0 353 0 354 1170 0 1170 0 0 -1040
0 -1040 -1170 0 -1170 0 0 178 -1 177 -22 -30 c-39 -53 -111 -126 -137 -139
-14 -7 -55 -21 -92 -31 l-68 -18 0 -185 0 -185 44 -42 c24 -24 57 -45 76 -48
18 -4 228 -7 466 -7 239 0 434 -2 434 -4 0 -2 -16 -75 -36 -162 -107 -481
-139 -621 -213 -948 -44 -198 -81 -368 -81 -379 0 -10 -25 -131 -55 -268 -30
-137 -55 -259 -55 -271 0 -38 41 -108 78 -133 72 -49 191 -22 234 52 17 28 47
151 164 673 19 85 39 184 44 220 5 36 29 153 54 260 24 107 67 296 94 420 52
230 108 477 117 517 5 22 9 23 130 23 l124 0 10 -37 c5 -21 30 -132 56 -248
61 -273 131 -581 200 -883 30 -134 55 -255 55 -270 1 -15 7 -54 14 -87 88
-394 129 -563 141 -580 49 -70 88 -89 166 -83 68 5 100 28 130 93 24 52 24 71
-6 205 -14 62 -30 143 -35 179 -5 36 -34 174 -64 306 -96 424 -248 1096 -277
1230 -16 72 -31 140 -34 153 l-5 22 441 0 c489 0 480 -1 539 67 l30 34 -2
1269 -3 1269 -21 28 c-12 15 -36 37 -55 48 -34 20 -53 20 -1389 22 -745 0
-1369 -2 -1386 -6z"/>
<path d="M3370 4005 c-69 -23 -154 -52 -190 -63 -36 -11 -159 -55 -275 -97
-115 -42 -242 -88 -282 -102 -68 -25 -73 -25 -105 -10 -51 24 -108 30 -157 17
-33 -9 -57 -26 -100 -73 -31 -34 -83 -91 -117 -127 -33 -36 -86 -95 -118 -132
-32 -38 -64 -68 -70 -68 -6 1 -51 39 -101 86 -49 47 -105 94 -122 104 l-33 19
1 -277 0 -277 71 -60 c121 -103 143 -115 210 -115 39 0 72 7 97 20 41 21 139
122 204 210 22 30 48 62 57 70 10 8 51 53 90 100 61 71 89 94 174 144 56 33
103 62 106 66 8 10 166 100 176 100 5 0 61 31 124 69 63 39 205 123 315 188
110 65 210 128 223 140 40 40 18 114 -34 112 -10 0 -75 -20 -144 -44z"/>
<path d="M843 3915 c-92 -25 -131 -53 -271 -192 -75 -75 -155 -149 -177 -165
-71 -51 -356 -332 -376 -370 -24 -47 -25 -137 -3 -181 9 -18 46 -66 83 -107
37 -41 85 -97 108 -125 22 -27 63 -72 89 -100 27 -27 89 -94 138 -148 101
-112 141 -137 219 -137 114 0 198 79 205 193 3 42 -1 74 -11 97 -8 19 -63 88
-121 152 -58 65 -106 120 -106 124 0 3 -25 34 -56 67 l-55 62 26 20 c15 11 61
52 103 91 42 39 102 93 132 119 30 27 70 63 89 80 29 26 -63 -107 -165 -239
l-22 -29 138 -154 c78 -88 153 -181 172 -216 31 -58 33 -68 33 -157 0 -85 -3
-101 -29 -155 -64 -129 -179 -200 -326 -200 -41 0 -87 3 -102 8 l-28 7 0
-1022 c0 -973 1 -1025 19 -1064 46 -102 124 -154 231 -154 107 0 189 53 234
150 21 44 21 58 24 808 l2 762 75 0 75 0 0 -742 c0 -778 -2 -815 -45 -898 -14
-28 -14 -29 21 -51 26 -16 57 -24 108 -27 123 -8 202 43 251 162 23 54 22
3333 0 3419 -45 172 -151 278 -314 313 -86 18 -299 17 -368 -1z"/>
</g>
</svg>
